<mxfile host="app.diagrams.net" modified="2024-03-05T17:23:34.183Z" agent="Mozilla/5.0 (X11; Linux x86_64; rv:123.0) Gecko/20100101 Firefox/123.0" etag="aYlMyiRnk0A2uTbDKz74" version="24.0.1" type="device">
  <diagram id="C5RBs43oDa-KdzZeNtuy" name="Page-1">
    <mxGraphModel dx="1509" dy="955" grid="1" gridSize="10" guides="1" tooltips="1" connect="1" arrows="1" fold="1" page="1" pageScale="1" pageWidth="827" pageHeight="1169" math="0" shadow="0">
      <root>
        <mxCell id="WIyWlLk6GJQsqaUBKTNV-0" />
        <mxCell id="WIyWlLk6GJQsqaUBKTNV-1" parent="WIyWlLk6GJQsqaUBKTNV-0" />
        <mxCell id="h-Z2IbVYWgnOHZGRxgHi-0" value="Client" style="swimlane;fontStyle=0;childLayout=stackLayout;horizontal=1;startSize=26;fillColor=none;horizontalStack=0;resizeParent=1;resizeParentMax=0;resizeLast=0;collapsible=1;marginBottom=0;whiteSpace=wrap;html=1;" vertex="1" parent="WIyWlLk6GJQsqaUBKTNV-1">
          <mxGeometry x="203" y="127" width="140" height="52" as="geometry" />
        </mxCell>
        <mxCell id="h-Z2IbVYWgnOHZGRxgHi-1" value="name" style="text;strokeColor=none;fillColor=none;align=left;verticalAlign=top;spacingLeft=4;spacingRight=4;overflow=hidden;rotatable=0;points=[[0,0.5],[1,0.5]];portConstraint=eastwest;whiteSpace=wrap;html=1;" vertex="1" parent="h-Z2IbVYWgnOHZGRxgHi-0">
          <mxGeometry y="26" width="140" height="26" as="geometry" />
        </mxCell>
        <mxCell id="h-Z2IbVYWgnOHZGRxgHi-4" value="" style="endArrow=none;html=1;rounded=0;" edge="1" parent="WIyWlLk6GJQsqaUBKTNV-1" source="h-Z2IbVYWgnOHZGRxgHi-0" target="h-Z2IbVYWgnOHZGRxgHi-5">
          <mxGeometry width="50" height="50" relative="1" as="geometry">
            <mxPoint x="93" y="249" as="sourcePoint" />
            <mxPoint x="143" y="199" as="targetPoint" />
          </mxGeometry>
        </mxCell>
        <mxCell id="h-Z2IbVYWgnOHZGRxgHi-12" value="1" style="edgeLabel;html=1;align=center;verticalAlign=middle;resizable=0;points=[];" vertex="1" connectable="0" parent="h-Z2IbVYWgnOHZGRxgHi-4">
          <mxGeometry x="-0.881" y="2" relative="1" as="geometry">
            <mxPoint x="14" y="5" as="offset" />
          </mxGeometry>
        </mxCell>
        <mxCell id="h-Z2IbVYWgnOHZGRxgHi-13" value="1..*" style="edgeLabel;html=1;align=center;verticalAlign=middle;resizable=0;points=[];" vertex="1" connectable="0" parent="h-Z2IbVYWgnOHZGRxgHi-4">
          <mxGeometry x="0.7952" y="2" relative="1" as="geometry">
            <mxPoint x="14" y="-4" as="offset" />
          </mxGeometry>
        </mxCell>
        <mxCell id="h-Z2IbVYWgnOHZGRxgHi-5" value="order" style="swimlane;fontStyle=0;childLayout=stackLayout;horizontal=1;startSize=26;fillColor=none;horizontalStack=0;resizeParent=1;resizeParentMax=0;resizeLast=0;collapsible=1;marginBottom=0;whiteSpace=wrap;html=1;" vertex="1" parent="WIyWlLk6GJQsqaUBKTNV-1">
          <mxGeometry x="193" y="235" width="160" height="156" as="geometry" />
        </mxCell>
        <mxCell id="h-Z2IbVYWgnOHZGRxgHi-6" value="number&lt;br&gt;&lt;div&gt;&lt;br&gt;&lt;/div&gt;" style="text;strokeColor=none;fillColor=none;align=left;verticalAlign=top;spacingLeft=4;spacingRight=4;overflow=hidden;rotatable=0;points=[[0,0.5],[1,0.5]];portConstraint=eastwest;whiteSpace=wrap;html=1;" vertex="1" parent="h-Z2IbVYWgnOHZGRxgHi-5">
          <mxGeometry y="26" width="160" height="26" as="geometry" />
        </mxCell>
        <mxCell id="h-Z2IbVYWgnOHZGRxgHi-7" value="quantity" style="text;strokeColor=none;fillColor=none;align=left;verticalAlign=top;spacingLeft=4;spacingRight=4;overflow=hidden;rotatable=0;points=[[0,0.5],[1,0.5]];portConstraint=eastwest;whiteSpace=wrap;html=1;" vertex="1" parent="h-Z2IbVYWgnOHZGRxgHi-5">
          <mxGeometry y="52" width="160" height="26" as="geometry" />
        </mxCell>
        <mxCell id="h-Z2IbVYWgnOHZGRxgHi-8" value="due_date" style="text;strokeColor=none;fillColor=none;align=left;verticalAlign=top;spacingLeft=4;spacingRight=4;overflow=hidden;rotatable=0;points=[[0,0.5],[1,0.5]];portConstraint=eastwest;whiteSpace=wrap;html=1;" vertex="1" parent="h-Z2IbVYWgnOHZGRxgHi-5">
          <mxGeometry y="78" width="160" height="26" as="geometry" />
        </mxCell>
        <mxCell id="h-Z2IbVYWgnOHZGRxgHi-10" value="early_penalty" style="text;strokeColor=none;fillColor=none;align=left;verticalAlign=top;spacingLeft=4;spacingRight=4;overflow=hidden;rotatable=0;points=[[0,0.5],[1,0.5]];portConstraint=eastwest;whiteSpace=wrap;html=1;" vertex="1" parent="h-Z2IbVYWgnOHZGRxgHi-5">
          <mxGeometry y="104" width="160" height="26" as="geometry" />
        </mxCell>
        <mxCell id="h-Z2IbVYWgnOHZGRxgHi-9" value="late_penalty" style="text;strokeColor=none;fillColor=none;align=left;verticalAlign=top;spacingLeft=4;spacingRight=4;overflow=hidden;rotatable=0;points=[[0,0.5],[1,0.5]];portConstraint=eastwest;whiteSpace=wrap;html=1;" vertex="1" parent="h-Z2IbVYWgnOHZGRxgHi-5">
          <mxGeometry y="130" width="160" height="26" as="geometry" />
        </mxCell>
        <mxCell id="h-Z2IbVYWgnOHZGRxgHi-14" value="Piece" style="swimlane;fontStyle=0;childLayout=stackLayout;horizontal=1;startSize=26;fillColor=none;horizontalStack=0;resizeParent=1;resizeParentMax=0;resizeLast=0;collapsible=1;marginBottom=0;whiteSpace=wrap;html=1;" vertex="1" parent="WIyWlLk6GJQsqaUBKTNV-1">
          <mxGeometry x="679" y="620.0000000000001" width="120" height="74" as="geometry" />
        </mxCell>
        <mxCell id="h-Z2IbVYWgnOHZGRxgHi-15" value="name" style="text;strokeColor=none;fillColor=none;align=left;verticalAlign=top;spacingLeft=4;spacingRight=4;overflow=hidden;rotatable=0;points=[[0,0.5],[1,0.5]];portConstraint=eastwest;whiteSpace=wrap;html=1;" vertex="1" parent="h-Z2IbVYWgnOHZGRxgHi-14">
          <mxGeometry y="26" width="120" height="22" as="geometry" />
        </mxCell>
        <mxCell id="h-Z2IbVYWgnOHZGRxgHi-16" value="kind" style="text;strokeColor=none;fillColor=none;align=left;verticalAlign=top;spacingLeft=4;spacingRight=4;overflow=hidden;rotatable=0;points=[[0,0.5],[1,0.5]];portConstraint=eastwest;whiteSpace=wrap;html=1;" vertex="1" parent="h-Z2IbVYWgnOHZGRxgHi-14">
          <mxGeometry y="48" width="120" height="26" as="geometry" />
        </mxCell>
        <mxCell id="h-Z2IbVYWgnOHZGRxgHi-19" value="Recipe" style="swimlane;fontStyle=0;childLayout=stackLayout;horizontal=1;startSize=26;fillColor=none;horizontalStack=0;resizeParent=1;resizeParentMax=0;resizeLast=0;collapsible=1;marginBottom=0;whiteSpace=wrap;html=1;" vertex="1" parent="WIyWlLk6GJQsqaUBKTNV-1">
          <mxGeometry x="679" y="870" width="120" height="50" as="geometry" />
        </mxCell>
        <mxCell id="h-Z2IbVYWgnOHZGRxgHi-25" value="duration" style="text;strokeColor=none;fillColor=none;align=left;verticalAlign=top;spacingLeft=4;spacingRight=4;overflow=hidden;rotatable=0;points=[[0,0.5],[1,0.5]];portConstraint=eastwest;whiteSpace=wrap;html=1;" vertex="1" parent="h-Z2IbVYWgnOHZGRxgHi-19">
          <mxGeometry y="26" width="120" height="24" as="geometry" />
        </mxCell>
        <mxCell id="h-Z2IbVYWgnOHZGRxgHi-27" value="Tool" style="swimlane;fontStyle=0;childLayout=stackLayout;horizontal=1;startSize=26;fillColor=none;horizontalStack=0;resizeParent=1;resizeParentMax=0;resizeLast=0;collapsible=1;marginBottom=0;whiteSpace=wrap;html=1;" vertex="1" parent="WIyWlLk6GJQsqaUBKTNV-1">
          <mxGeometry x="679" y="991" width="120" height="52" as="geometry" />
        </mxCell>
        <mxCell id="h-Z2IbVYWgnOHZGRxgHi-28" value="code" style="text;strokeColor=none;fillColor=none;align=left;verticalAlign=top;spacingLeft=4;spacingRight=4;overflow=hidden;rotatable=0;points=[[0,0.5],[1,0.5]];portConstraint=eastwest;whiteSpace=wrap;html=1;" vertex="1" parent="h-Z2IbVYWgnOHZGRxgHi-27">
          <mxGeometry y="26" width="120" height="26" as="geometry" />
        </mxCell>
        <mxCell id="h-Z2IbVYWgnOHZGRxgHi-32" value="" style="endArrow=none;html=1;rounded=0;" edge="1" parent="WIyWlLk6GJQsqaUBKTNV-1" source="h-Z2IbVYWgnOHZGRxgHi-19" target="h-Z2IbVYWgnOHZGRxgHi-27">
          <mxGeometry width="50" height="50" relative="1" as="geometry">
            <mxPoint x="646" y="892" as="sourcePoint" />
            <mxPoint x="716" y="852" as="targetPoint" />
          </mxGeometry>
        </mxCell>
        <mxCell id="h-Z2IbVYWgnOHZGRxgHi-33" value="*" style="edgeLabel;html=1;align=center;verticalAlign=middle;resizable=0;points=[];" vertex="1" connectable="0" parent="h-Z2IbVYWgnOHZGRxgHi-32">
          <mxGeometry x="-0.86" y="-1" relative="1" as="geometry">
            <mxPoint x="-9" y="4" as="offset" />
          </mxGeometry>
        </mxCell>
        <mxCell id="h-Z2IbVYWgnOHZGRxgHi-34" value="1" style="edgeLabel;html=1;align=center;verticalAlign=middle;resizable=0;points=[];" vertex="1" connectable="0" parent="h-Z2IbVYWgnOHZGRxgHi-32">
          <mxGeometry x="0.8467" y="-1" relative="1" as="geometry">
            <mxPoint x="-9" y="-5" as="offset" />
          </mxGeometry>
        </mxCell>
        <mxCell id="h-Z2IbVYWgnOHZGRxgHi-54" value="Item" style="swimlane;fontStyle=0;childLayout=stackLayout;horizontal=1;startSize=26;fillColor=none;horizontalStack=0;resizeParent=1;resizeParentMax=0;resizeLast=0;collapsible=1;marginBottom=0;whiteSpace=wrap;html=1;" vertex="1" parent="WIyWlLk6GJQsqaUBKTNV-1">
          <mxGeometry x="193" y="618" width="160" height="78" as="geometry" />
        </mxCell>
        <mxCell id="h-Z2IbVYWgnOHZGRxgHi-55" value="accummulated_cost" style="text;strokeColor=none;fillColor=none;align=left;verticalAlign=top;spacingLeft=4;spacingRight=4;overflow=hidden;rotatable=0;points=[[0,0.5],[1,0.5]];portConstraint=eastwest;whiteSpace=wrap;html=1;" vertex="1" parent="h-Z2IbVYWgnOHZGRxgHi-54">
          <mxGeometry y="26" width="160" height="26" as="geometry" />
        </mxCell>
        <mxCell id="h-Z2IbVYWgnOHZGRxgHi-199" value="lifetime tracking id" style="text;strokeColor=none;fillColor=none;align=left;verticalAlign=top;spacingLeft=4;spacingRight=4;overflow=hidden;rotatable=0;points=[[0,0.5],[1,0.5]];portConstraint=eastwest;whiteSpace=wrap;html=1;" vertex="1" parent="h-Z2IbVYWgnOHZGRxgHi-54">
          <mxGeometry y="52" width="160" height="26" as="geometry" />
        </mxCell>
        <mxCell id="h-Z2IbVYWgnOHZGRxgHi-89" value="" style="swimlane;fontStyle=0;childLayout=stackLayout;horizontal=1;startSize=26;fillColor=none;horizontalStack=0;resizeParent=1;resizeParentMax=0;resizeLast=0;collapsible=1;marginBottom=0;whiteSpace=wrap;html=1;" vertex="1" parent="WIyWlLk6GJQsqaUBKTNV-1">
          <mxGeometry x="149" y="870" width="120" height="52" as="geometry">
            <mxRectangle x="190" y="700" width="50" height="40" as="alternateBounds" />
          </mxGeometry>
        </mxCell>
        <mxCell id="h-Z2IbVYWgnOHZGRxgHi-86" value="transformation_date" style="text;strokeColor=none;fillColor=none;align=center;verticalAlign=top;spacingLeft=4;spacingRight=4;overflow=hidden;rotatable=0;points=[[0,0.5],[1,0.5]];portConstraint=eastwest;whiteSpace=wrap;html=1;" vertex="1" parent="h-Z2IbVYWgnOHZGRxgHi-89">
          <mxGeometry y="26" width="120" height="26" as="geometry" />
        </mxCell>
        <mxCell id="h-Z2IbVYWgnOHZGRxgHi-93" value="Status" style="swimlane;fontStyle=0;childLayout=stackLayout;horizontal=1;startSize=26;fillColor=none;horizontalStack=0;resizeParent=1;resizeParentMax=0;resizeLast=0;collapsible=1;marginBottom=0;whiteSpace=wrap;html=1;" vertex="1" parent="WIyWlLk6GJQsqaUBKTNV-1">
          <mxGeometry x="9" y="618" width="140" height="78" as="geometry" />
        </mxCell>
        <mxCell id="h-Z2IbVYWgnOHZGRxgHi-96" value="&lt;div&gt;code&lt;/div&gt;" style="text;strokeColor=none;fillColor=none;align=left;verticalAlign=top;spacingLeft=4;spacingRight=4;overflow=hidden;rotatable=0;points=[[0,0.5],[1,0.5]];portConstraint=eastwest;whiteSpace=wrap;html=1;" vertex="1" parent="h-Z2IbVYWgnOHZGRxgHi-93">
          <mxGeometry y="26" width="140" height="26" as="geometry" />
        </mxCell>
        <mxCell id="h-Z2IbVYWgnOHZGRxgHi-97" value="description" style="text;strokeColor=none;fillColor=none;align=left;verticalAlign=top;spacingLeft=4;spacingRight=4;overflow=hidden;rotatable=0;points=[[0,0.5],[1,0.5]];portConstraint=eastwest;whiteSpace=wrap;html=1;" vertex="1" parent="h-Z2IbVYWgnOHZGRxgHi-93">
          <mxGeometry y="52" width="140" height="26" as="geometry" />
        </mxCell>
        <mxCell id="h-Z2IbVYWgnOHZGRxgHi-98" value="" style="endArrow=none;html=1;rounded=0;" edge="1" parent="WIyWlLk6GJQsqaUBKTNV-1" source="h-Z2IbVYWgnOHZGRxgHi-93" target="h-Z2IbVYWgnOHZGRxgHi-54">
          <mxGeometry width="50" height="50" relative="1" as="geometry">
            <mxPoint x="272.71000000000004" y="778.9999999999999" as="sourcePoint" />
            <mxPoint x="272.71000000000004" y="695" as="targetPoint" />
          </mxGeometry>
        </mxCell>
        <mxCell id="h-Z2IbVYWgnOHZGRxgHi-99" value="*" style="edgeLabel;html=1;align=center;verticalAlign=middle;resizable=0;points=[];" vertex="1" connectable="0" parent="h-Z2IbVYWgnOHZGRxgHi-98">
          <mxGeometry x="0.7154" y="-1" relative="1" as="geometry">
            <mxPoint x="-5" y="-17" as="offset" />
          </mxGeometry>
        </mxCell>
        <mxCell id="h-Z2IbVYWgnOHZGRxgHi-100" value="1" style="edgeLabel;html=1;align=center;verticalAlign=middle;resizable=0;points=[];" vertex="1" connectable="0" parent="h-Z2IbVYWgnOHZGRxgHi-98">
          <mxGeometry x="-0.7886" y="1" relative="1" as="geometry">
            <mxPoint x="3" y="-15" as="offset" />
          </mxGeometry>
        </mxCell>
        <mxCell id="h-Z2IbVYWgnOHZGRxgHi-101" value="" style="endArrow=classic;html=1;rounded=0;" edge="1" parent="WIyWlLk6GJQsqaUBKTNV-1" source="h-Z2IbVYWgnOHZGRxgHi-14" target="h-Z2IbVYWgnOHZGRxgHi-54">
          <mxGeometry width="50" height="50" relative="1" as="geometry">
            <mxPoint x="423" y="661" as="sourcePoint" />
            <mxPoint x="473" y="611" as="targetPoint" />
          </mxGeometry>
        </mxCell>
        <mxCell id="h-Z2IbVYWgnOHZGRxgHi-146" value="is instance of" style="edgeLabel;html=1;align=center;verticalAlign=middle;resizable=0;points=[];" vertex="1" connectable="0" parent="h-Z2IbVYWgnOHZGRxgHi-101">
          <mxGeometry x="0.0675" y="-1" relative="1" as="geometry">
            <mxPoint x="46" as="offset" />
          </mxGeometry>
        </mxCell>
        <mxCell id="h-Z2IbVYWgnOHZGRxgHi-103" value="Supplier" style="swimlane;fontStyle=0;childLayout=stackLayout;horizontal=1;startSize=26;fillColor=none;horizontalStack=0;resizeParent=1;resizeParentMax=0;resizeLast=0;collapsible=1;marginBottom=0;whiteSpace=wrap;html=1;" vertex="1" parent="WIyWlLk6GJQsqaUBKTNV-1">
          <mxGeometry x="659" y="391" width="160" height="130" as="geometry" />
        </mxCell>
        <mxCell id="h-Z2IbVYWgnOHZGRxgHi-104" value="name" style="text;strokeColor=none;fillColor=none;align=left;verticalAlign=top;spacingLeft=4;spacingRight=4;overflow=hidden;rotatable=0;points=[[0,0.5],[1,0.5]];portConstraint=eastwest;whiteSpace=wrap;html=1;" vertex="1" parent="h-Z2IbVYWgnOHZGRxgHi-103">
          <mxGeometry y="26" width="160" height="26" as="geometry" />
        </mxCell>
        <mxCell id="h-Z2IbVYWgnOHZGRxgHi-105" value="&lt;div&gt;unit_cost&lt;/div&gt;" style="text;strokeColor=none;fillColor=none;align=left;verticalAlign=top;spacingLeft=4;spacingRight=4;overflow=hidden;rotatable=0;points=[[0,0.5],[1,0.5]];portConstraint=eastwest;whiteSpace=wrap;html=1;" vertex="1" parent="h-Z2IbVYWgnOHZGRxgHi-103">
          <mxGeometry y="52" width="160" height="26" as="geometry" />
        </mxCell>
        <mxCell id="h-Z2IbVYWgnOHZGRxgHi-112" value="min_order_ammount" style="text;strokeColor=none;fillColor=none;align=left;verticalAlign=top;spacingLeft=4;spacingRight=4;overflow=hidden;rotatable=0;points=[[0,0.5],[1,0.5]];portConstraint=eastwest;whiteSpace=wrap;html=1;" vertex="1" parent="h-Z2IbVYWgnOHZGRxgHi-103">
          <mxGeometry y="78" width="160" height="26" as="geometry" />
        </mxCell>
        <mxCell id="h-Z2IbVYWgnOHZGRxgHi-106" value="delivery_time" style="text;strokeColor=none;fillColor=none;align=left;verticalAlign=top;spacingLeft=4;spacingRight=4;overflow=hidden;rotatable=0;points=[[0,0.5],[1,0.5]];portConstraint=eastwest;whiteSpace=wrap;html=1;" vertex="1" parent="h-Z2IbVYWgnOHZGRxgHi-103">
          <mxGeometry y="104" width="160" height="26" as="geometry" />
        </mxCell>
        <mxCell id="h-Z2IbVYWgnOHZGRxgHi-109" value="" style="endArrow=none;html=1;rounded=0;" edge="1" parent="WIyWlLk6GJQsqaUBKTNV-1" source="h-Z2IbVYWgnOHZGRxgHi-14" target="h-Z2IbVYWgnOHZGRxgHi-103">
          <mxGeometry width="50" height="50" relative="1" as="geometry">
            <mxPoint x="655" y="551" as="sourcePoint" />
            <mxPoint x="705" y="501" as="targetPoint" />
          </mxGeometry>
        </mxCell>
        <mxCell id="h-Z2IbVYWgnOHZGRxgHi-110" value="*" style="edgeLabel;html=1;align=center;verticalAlign=middle;resizable=0;points=[];" vertex="1" connectable="0" parent="h-Z2IbVYWgnOHZGRxgHi-109">
          <mxGeometry x="0.8109" relative="1" as="geometry">
            <mxPoint x="6" as="offset" />
          </mxGeometry>
        </mxCell>
        <mxCell id="h-Z2IbVYWgnOHZGRxgHi-111" value="1" style="edgeLabel;html=1;align=center;verticalAlign=middle;resizable=0;points=[];" vertex="1" connectable="0" parent="h-Z2IbVYWgnOHZGRxgHi-109">
          <mxGeometry x="-0.7296" y="1" relative="1" as="geometry">
            <mxPoint x="7" as="offset" />
          </mxGeometry>
        </mxCell>
        <mxCell id="h-Z2IbVYWgnOHZGRxgHi-113" value="shippment" style="swimlane;fontStyle=0;childLayout=stackLayout;horizontal=1;startSize=26;fillColor=none;horizontalStack=0;resizeParent=1;resizeParentMax=0;resizeLast=0;collapsible=1;marginBottom=0;whiteSpace=wrap;html=1;" vertex="1" parent="WIyWlLk6GJQsqaUBKTNV-1">
          <mxGeometry x="429" y="407" width="160" height="104" as="geometry" />
        </mxCell>
        <mxCell id="h-Z2IbVYWgnOHZGRxgHi-114" value="quantity" style="text;strokeColor=none;fillColor=none;align=left;verticalAlign=top;spacingLeft=4;spacingRight=4;overflow=hidden;rotatable=0;points=[[0,0.5],[1,0.5]];portConstraint=eastwest;whiteSpace=wrap;html=1;" vertex="1" parent="h-Z2IbVYWgnOHZGRxgHi-113">
          <mxGeometry y="26" width="160" height="26" as="geometry" />
        </mxCell>
        <mxCell id="h-Z2IbVYWgnOHZGRxgHi-115" value="cost" style="text;strokeColor=none;fillColor=none;align=left;verticalAlign=top;spacingLeft=4;spacingRight=4;overflow=hidden;rotatable=0;points=[[0,0.5],[1,0.5]];portConstraint=eastwest;whiteSpace=wrap;html=1;" vertex="1" parent="h-Z2IbVYWgnOHZGRxgHi-113">
          <mxGeometry y="52" width="160" height="26" as="geometry" />
        </mxCell>
        <mxCell id="h-Z2IbVYWgnOHZGRxgHi-200" value="expected_arrival_date" style="text;strokeColor=none;fillColor=none;align=left;verticalAlign=top;spacingLeft=4;spacingRight=4;overflow=hidden;rotatable=0;points=[[0,0.5],[1,0.5]];portConstraint=eastwest;whiteSpace=wrap;html=1;" vertex="1" parent="h-Z2IbVYWgnOHZGRxgHi-113">
          <mxGeometry y="78" width="160" height="26" as="geometry" />
        </mxCell>
        <mxCell id="h-Z2IbVYWgnOHZGRxgHi-119" value="" style="endArrow=none;html=1;rounded=0;" edge="1" parent="WIyWlLk6GJQsqaUBKTNV-1" source="h-Z2IbVYWgnOHZGRxgHi-113" target="h-Z2IbVYWgnOHZGRxgHi-103">
          <mxGeometry width="50" height="50" relative="1" as="geometry">
            <mxPoint x="599" y="551" as="sourcePoint" />
            <mxPoint x="649" y="501" as="targetPoint" />
          </mxGeometry>
        </mxCell>
        <mxCell id="h-Z2IbVYWgnOHZGRxgHi-120" value="*" style="edgeLabel;html=1;align=center;verticalAlign=middle;resizable=0;points=[];" vertex="1" connectable="0" parent="h-Z2IbVYWgnOHZGRxgHi-119">
          <mxGeometry x="-0.8292" relative="1" as="geometry">
            <mxPoint x="4" y="-15" as="offset" />
          </mxGeometry>
        </mxCell>
        <mxCell id="h-Z2IbVYWgnOHZGRxgHi-121" value="*" style="edgeLabel;html=1;align=center;verticalAlign=middle;resizable=0;points=[];" vertex="1" connectable="0" parent="h-Z2IbVYWgnOHZGRxgHi-119">
          <mxGeometry x="0.8851" y="1" relative="1" as="geometry">
            <mxPoint x="-6" y="-14" as="offset" />
          </mxGeometry>
        </mxCell>
        <mxCell id="h-Z2IbVYWgnOHZGRxgHi-122" value="" style="endArrow=none;html=1;rounded=0;entryX=0.25;entryY=1;entryDx=0;entryDy=0;exitX=0.75;exitY=0;exitDx=0;exitDy=0;" edge="1" parent="WIyWlLk6GJQsqaUBKTNV-1" source="h-Z2IbVYWgnOHZGRxgHi-54" target="h-Z2IbVYWgnOHZGRxgHi-113">
          <mxGeometry width="50" height="50" relative="1" as="geometry">
            <mxPoint x="499" y="571" as="sourcePoint" />
            <mxPoint x="451" y="507" as="targetPoint" />
          </mxGeometry>
        </mxCell>
        <mxCell id="h-Z2IbVYWgnOHZGRxgHi-137" value="1" style="edgeLabel;html=1;align=center;verticalAlign=middle;resizable=0;points=[];" vertex="1" connectable="0" parent="h-Z2IbVYWgnOHZGRxgHi-122">
          <mxGeometry x="0.856" y="1" relative="1" as="geometry">
            <mxPoint x="18" as="offset" />
          </mxGeometry>
        </mxCell>
        <mxCell id="h-Z2IbVYWgnOHZGRxgHi-138" value="*" style="edgeLabel;html=1;align=center;verticalAlign=middle;resizable=0;points=[];" vertex="1" connectable="0" parent="h-Z2IbVYWgnOHZGRxgHi-122">
          <mxGeometry x="-0.8678" y="1" relative="1" as="geometry">
            <mxPoint x="16" as="offset" />
          </mxGeometry>
        </mxCell>
        <mxCell id="h-Z2IbVYWgnOHZGRxgHi-124" value="Warehouse" style="swimlane;fontStyle=0;childLayout=stackLayout;horizontal=1;startSize=26;fillColor=none;horizontalStack=0;resizeParent=1;resizeParentMax=0;resizeLast=0;collapsible=1;marginBottom=0;whiteSpace=wrap;html=1;" vertex="1" parent="WIyWlLk6GJQsqaUBKTNV-1">
          <mxGeometry x="9" y="731" width="140" height="78" as="geometry" />
        </mxCell>
        <mxCell id="h-Z2IbVYWgnOHZGRxgHi-125" value="name" style="text;strokeColor=none;fillColor=none;align=left;verticalAlign=top;spacingLeft=4;spacingRight=4;overflow=hidden;rotatable=0;points=[[0,0.5],[1,0.5]];portConstraint=eastwest;whiteSpace=wrap;html=1;" vertex="1" parent="h-Z2IbVYWgnOHZGRxgHi-124">
          <mxGeometry y="26" width="140" height="26" as="geometry" />
        </mxCell>
        <mxCell id="h-Z2IbVYWgnOHZGRxgHi-126" value="capacity" style="text;strokeColor=none;fillColor=none;align=left;verticalAlign=top;spacingLeft=4;spacingRight=4;overflow=hidden;rotatable=0;points=[[0,0.5],[1,0.5]];portConstraint=eastwest;whiteSpace=wrap;html=1;" vertex="1" parent="h-Z2IbVYWgnOHZGRxgHi-124">
          <mxGeometry y="52" width="140" height="26" as="geometry" />
        </mxCell>
        <mxCell id="h-Z2IbVYWgnOHZGRxgHi-128" value="" style="endArrow=none;html=1;rounded=0;exitX=1;exitY=0.5;exitDx=0;exitDy=0;entryX=0.25;entryY=1;entryDx=0;entryDy=0;" edge="1" parent="WIyWlLk6GJQsqaUBKTNV-1" source="h-Z2IbVYWgnOHZGRxgHi-125" target="h-Z2IbVYWgnOHZGRxgHi-54">
          <mxGeometry width="50" height="50" relative="1" as="geometry">
            <mxPoint x="189" y="781" as="sourcePoint" />
            <mxPoint x="281" y="697" as="targetPoint" />
          </mxGeometry>
        </mxCell>
        <mxCell id="h-Z2IbVYWgnOHZGRxgHi-129" value="*" style="edgeLabel;html=1;align=center;verticalAlign=middle;resizable=0;points=[];" vertex="1" connectable="0" parent="h-Z2IbVYWgnOHZGRxgHi-128">
          <mxGeometry x="0.8658" y="-1" relative="1" as="geometry">
            <mxPoint x="3" y="8" as="offset" />
          </mxGeometry>
        </mxCell>
        <mxCell id="h-Z2IbVYWgnOHZGRxgHi-130" value="0..1" style="edgeLabel;html=1;align=center;verticalAlign=middle;resizable=0;points=[];" vertex="1" connectable="0" parent="h-Z2IbVYWgnOHZGRxgHi-128">
          <mxGeometry x="-0.8615" relative="1" as="geometry">
            <mxPoint x="6" y="13" as="offset" />
          </mxGeometry>
        </mxCell>
        <mxCell id="h-Z2IbVYWgnOHZGRxgHi-132" value="located at" style="edgeLabel;html=1;align=center;verticalAlign=middle;resizable=0;points=[];" vertex="1" connectable="0" parent="h-Z2IbVYWgnOHZGRxgHi-128">
          <mxGeometry x="0.0264" relative="1" as="geometry">
            <mxPoint x="-7" y="1" as="offset" />
          </mxGeometry>
        </mxCell>
        <mxCell id="h-Z2IbVYWgnOHZGRxgHi-142" value="" style="swimlane;fontStyle=0;childLayout=stackLayout;horizontal=1;startSize=26;fillColor=none;horizontalStack=0;resizeParent=1;resizeParentMax=0;resizeLast=0;collapsible=1;marginBottom=0;whiteSpace=wrap;html=1;" vertex="1" parent="WIyWlLk6GJQsqaUBKTNV-1">
          <mxGeometry x="447" y="566" width="124" height="52" as="geometry">
            <mxRectangle x="190" y="700" width="50" height="40" as="alternateBounds" />
          </mxGeometry>
        </mxCell>
        <mxCell id="h-Z2IbVYWgnOHZGRxgHi-141" value="arrival_date" style="text;strokeColor=none;fillColor=none;align=center;verticalAlign=top;spacingLeft=4;spacingRight=4;overflow=hidden;rotatable=0;points=[[0,0.5],[1,0.5]];portConstraint=eastwest;whiteSpace=wrap;html=1;" vertex="1" parent="h-Z2IbVYWgnOHZGRxgHi-142">
          <mxGeometry y="26" width="124" height="26" as="geometry" />
        </mxCell>
        <mxCell id="h-Z2IbVYWgnOHZGRxgHi-148" value="Delivery" style="swimlane;fontStyle=0;childLayout=stackLayout;horizontal=1;startSize=26;fillColor=none;horizontalStack=0;resizeParent=1;resizeParentMax=0;resizeLast=0;collapsible=1;marginBottom=0;whiteSpace=wrap;html=1;" vertex="1" parent="WIyWlLk6GJQsqaUBKTNV-1">
          <mxGeometry x="201.5" y="461" width="143" height="74" as="geometry" />
        </mxCell>
        <mxCell id="h-Z2IbVYWgnOHZGRxgHi-149" value="status" style="text;strokeColor=none;fillColor=none;align=left;verticalAlign=top;spacingLeft=4;spacingRight=4;overflow=hidden;rotatable=0;points=[[0,0.5],[1,0.5]];portConstraint=eastwest;whiteSpace=wrap;html=1;" vertex="1" parent="h-Z2IbVYWgnOHZGRxgHi-148">
          <mxGeometry y="26" width="143" height="24" as="geometry" />
        </mxCell>
        <mxCell id="h-Z2IbVYWgnOHZGRxgHi-207" value="scheduled_completion_date" style="text;strokeColor=none;fillColor=none;align=left;verticalAlign=top;spacingLeft=4;spacingRight=4;overflow=hidden;rotatable=0;points=[[0,0.5],[1,0.5]];portConstraint=eastwest;whiteSpace=wrap;html=1;" vertex="1" parent="h-Z2IbVYWgnOHZGRxgHi-148">
          <mxGeometry y="50" width="143" height="24" as="geometry" />
        </mxCell>
        <mxCell id="h-Z2IbVYWgnOHZGRxgHi-157" value="" style="endArrow=none;html=1;rounded=0;exitX=1;exitY=0.5;exitDx=0;exitDy=0;entryX=1;entryY=1;entryDx=0;entryDy=0;" edge="1" parent="WIyWlLk6GJQsqaUBKTNV-1" source="h-Z2IbVYWgnOHZGRxgHi-181" target="h-Z2IbVYWgnOHZGRxgHi-54">
          <mxGeometry width="50" height="50" relative="1" as="geometry">
            <mxPoint x="310" y="821" as="sourcePoint" />
            <mxPoint x="370" y="751" as="targetPoint" />
          </mxGeometry>
        </mxCell>
        <mxCell id="h-Z2IbVYWgnOHZGRxgHi-163" value="1" style="edgeLabel;html=1;align=center;verticalAlign=middle;resizable=0;points=[];" vertex="1" connectable="0" parent="h-Z2IbVYWgnOHZGRxgHi-157">
          <mxGeometry x="0.8762" y="-1" relative="1" as="geometry">
            <mxPoint x="6" y="-5" as="offset" />
          </mxGeometry>
        </mxCell>
        <mxCell id="h-Z2IbVYWgnOHZGRxgHi-167" value="consumed by" style="edgeLabel;html=1;align=center;verticalAlign=middle;resizable=0;points=[];" vertex="1" connectable="0" parent="h-Z2IbVYWgnOHZGRxgHi-157">
          <mxGeometry x="0.1854" y="1" relative="1" as="geometry">
            <mxPoint x="-2" as="offset" />
          </mxGeometry>
        </mxCell>
        <mxCell id="h-Z2IbVYWgnOHZGRxgHi-161" value="" style="endArrow=none;html=1;rounded=0;exitX=0;exitY=0.5;exitDx=0;exitDy=0;entryX=0.75;entryY=1;entryDx=0;entryDy=0;" edge="1" parent="WIyWlLk6GJQsqaUBKTNV-1" source="h-Z2IbVYWgnOHZGRxgHi-181" target="h-Z2IbVYWgnOHZGRxgHi-54">
          <mxGeometry width="50" height="50" relative="1" as="geometry">
            <mxPoint x="485" y="883" as="sourcePoint" />
            <mxPoint x="330" y="741" as="targetPoint" />
          </mxGeometry>
        </mxCell>
        <mxCell id="h-Z2IbVYWgnOHZGRxgHi-165" value="1" style="edgeLabel;html=1;align=center;verticalAlign=middle;resizable=0;points=[];" vertex="1" connectable="0" parent="h-Z2IbVYWgnOHZGRxgHi-161">
          <mxGeometry x="0.8713" y="2" relative="1" as="geometry">
            <mxPoint x="9" y="-6" as="offset" />
          </mxGeometry>
        </mxCell>
        <mxCell id="h-Z2IbVYWgnOHZGRxgHi-168" value="produced by" style="edgeLabel;html=1;align=center;verticalAlign=middle;resizable=0;points=[];" vertex="1" connectable="0" parent="h-Z2IbVYWgnOHZGRxgHi-161">
          <mxGeometry x="0.1611" y="2" relative="1" as="geometry">
            <mxPoint x="-1" y="21" as="offset" />
          </mxGeometry>
        </mxCell>
        <mxCell id="h-Z2IbVYWgnOHZGRxgHi-170" value="" style="endArrow=none;html=1;rounded=0;exitX=0.25;exitY=0;exitDx=0;exitDy=0;entryX=0.25;entryY=1;entryDx=0;entryDy=0;" edge="1" parent="WIyWlLk6GJQsqaUBKTNV-1" source="h-Z2IbVYWgnOHZGRxgHi-19" target="h-Z2IbVYWgnOHZGRxgHi-14">
          <mxGeometry width="50" height="50" relative="1" as="geometry">
            <mxPoint x="640" y="781" as="sourcePoint" />
            <mxPoint x="700" y="720" as="targetPoint" />
          </mxGeometry>
        </mxCell>
        <mxCell id="h-Z2IbVYWgnOHZGRxgHi-172" value="needs" style="edgeLabel;html=1;align=center;verticalAlign=middle;resizable=0;points=[];" vertex="1" connectable="0" parent="h-Z2IbVYWgnOHZGRxgHi-170">
          <mxGeometry x="0.0327" y="1" relative="1" as="geometry">
            <mxPoint x="2" y="-7" as="offset" />
          </mxGeometry>
        </mxCell>
        <mxCell id="h-Z2IbVYWgnOHZGRxgHi-177" value="1" style="edgeLabel;html=1;align=center;verticalAlign=middle;resizable=0;points=[];" vertex="1" connectable="0" parent="h-Z2IbVYWgnOHZGRxgHi-170">
          <mxGeometry x="0.8847" relative="1" as="geometry">
            <mxPoint x="11" as="offset" />
          </mxGeometry>
        </mxCell>
        <mxCell id="h-Z2IbVYWgnOHZGRxgHi-178" value="*" style="edgeLabel;html=1;align=center;verticalAlign=middle;resizable=0;points=[];" vertex="1" connectable="0" parent="h-Z2IbVYWgnOHZGRxgHi-170">
          <mxGeometry x="-0.8151" relative="1" as="geometry">
            <mxPoint x="10" y="8" as="offset" />
          </mxGeometry>
        </mxCell>
        <mxCell id="h-Z2IbVYWgnOHZGRxgHi-171" value="" style="endArrow=none;html=1;rounded=0;exitX=0.75;exitY=0;exitDx=0;exitDy=0;entryX=0.75;entryY=1;entryDx=0;entryDy=0;" edge="1" parent="WIyWlLk6GJQsqaUBKTNV-1" source="h-Z2IbVYWgnOHZGRxgHi-19" target="h-Z2IbVYWgnOHZGRxgHi-14">
          <mxGeometry width="50" height="50" relative="1" as="geometry">
            <mxPoint x="599" y="880" as="sourcePoint" />
            <mxPoint x="780" y="720" as="targetPoint" />
          </mxGeometry>
        </mxCell>
        <mxCell id="h-Z2IbVYWgnOHZGRxgHi-173" value="creates" style="edgeLabel;html=1;align=center;verticalAlign=middle;resizable=0;points=[];" vertex="1" connectable="0" parent="h-Z2IbVYWgnOHZGRxgHi-171">
          <mxGeometry x="-0.0128" y="2" relative="1" as="geometry">
            <mxPoint x="3" y="-11" as="offset" />
          </mxGeometry>
        </mxCell>
        <mxCell id="h-Z2IbVYWgnOHZGRxgHi-176" value="1" style="edgeLabel;html=1;align=center;verticalAlign=middle;resizable=0;points=[];" vertex="1" connectable="0" parent="h-Z2IbVYWgnOHZGRxgHi-171">
          <mxGeometry x="0.8692" y="1" relative="1" as="geometry">
            <mxPoint x="12" as="offset" />
          </mxGeometry>
        </mxCell>
        <mxCell id="h-Z2IbVYWgnOHZGRxgHi-179" value="*" style="edgeLabel;html=1;align=center;verticalAlign=middle;resizable=0;points=[];" vertex="1" connectable="0" parent="h-Z2IbVYWgnOHZGRxgHi-171">
          <mxGeometry x="-0.7742" y="-1" relative="1" as="geometry">
            <mxPoint x="12" y="13" as="offset" />
          </mxGeometry>
        </mxCell>
        <mxCell id="h-Z2IbVYWgnOHZGRxgHi-181" value="" style="rhombus;whiteSpace=wrap;html=1;" vertex="1" parent="WIyWlLk6GJQsqaUBKTNV-1">
          <mxGeometry x="313" y="876" width="40" height="40" as="geometry" />
        </mxCell>
        <mxCell id="h-Z2IbVYWgnOHZGRxgHi-182" value="" style="endArrow=none;html=1;rounded=0;exitX=1;exitY=0.5;exitDx=0;exitDy=0;" edge="1" parent="WIyWlLk6GJQsqaUBKTNV-1" source="h-Z2IbVYWgnOHZGRxgHi-181" target="h-Z2IbVYWgnOHZGRxgHi-19">
          <mxGeometry width="50" height="50" relative="1" as="geometry">
            <mxPoint x="470" y="891" as="sourcePoint" />
            <mxPoint x="520" y="841" as="targetPoint" />
          </mxGeometry>
        </mxCell>
        <mxCell id="h-Z2IbVYWgnOHZGRxgHi-185" value="1" style="edgeLabel;html=1;align=center;verticalAlign=middle;resizable=0;points=[];" vertex="1" connectable="0" parent="h-Z2IbVYWgnOHZGRxgHi-182">
          <mxGeometry x="0.8787" y="-1" relative="1" as="geometry">
            <mxPoint y="14" as="offset" />
          </mxGeometry>
        </mxCell>
        <mxCell id="h-Z2IbVYWgnOHZGRxgHi-196" value="follows" style="edgeLabel;html=1;align=center;verticalAlign=middle;resizable=0;points=[];" vertex="1" connectable="0" parent="h-Z2IbVYWgnOHZGRxgHi-182">
          <mxGeometry x="-0.1205" relative="1" as="geometry">
            <mxPoint x="14" as="offset" />
          </mxGeometry>
        </mxCell>
        <mxCell id="h-Z2IbVYWgnOHZGRxgHi-186" value="ItemTransformation" style="swimlane;fontStyle=0;childLayout=stackLayout;horizontal=1;startSize=26;fillColor=none;horizontalStack=0;resizeParent=1;resizeParentMax=0;resizeLast=0;collapsible=1;marginBottom=0;whiteSpace=wrap;html=1;" vertex="1" parent="WIyWlLk6GJQsqaUBKTNV-1">
          <mxGeometry x="263" y="965" width="140" height="78" as="geometry" />
        </mxCell>
        <mxCell id="h-Z2IbVYWgnOHZGRxgHi-187" value="status" style="text;strokeColor=none;fillColor=none;align=left;verticalAlign=top;spacingLeft=4;spacingRight=4;overflow=hidden;rotatable=0;points=[[0,0.5],[1,0.5]];portConstraint=eastwest;whiteSpace=wrap;html=1;" vertex="1" parent="h-Z2IbVYWgnOHZGRxgHi-186">
          <mxGeometry y="26" width="140" height="26" as="geometry" />
        </mxCell>
        <mxCell id="h-Z2IbVYWgnOHZGRxgHi-206" value="scheduled_date" style="text;strokeColor=none;fillColor=none;align=left;verticalAlign=top;spacingLeft=4;spacingRight=4;overflow=hidden;rotatable=0;points=[[0,0.5],[1,0.5]];portConstraint=eastwest;whiteSpace=wrap;html=1;" vertex="1" parent="h-Z2IbVYWgnOHZGRxgHi-186">
          <mxGeometry y="52" width="140" height="26" as="geometry" />
        </mxCell>
        <mxCell id="h-Z2IbVYWgnOHZGRxgHi-191" value="" style="endArrow=none;html=1;rounded=0;exitX=0.5;exitY=1;exitDx=0;exitDy=0;" edge="1" parent="WIyWlLk6GJQsqaUBKTNV-1" source="h-Z2IbVYWgnOHZGRxgHi-181" target="h-Z2IbVYWgnOHZGRxgHi-186">
          <mxGeometry width="50" height="50" relative="1" as="geometry">
            <mxPoint x="330" y="921" as="sourcePoint" />
            <mxPoint x="380" y="871" as="targetPoint" />
          </mxGeometry>
        </mxCell>
        <mxCell id="h-Z2IbVYWgnOHZGRxgHi-193" value="*" style="edgeLabel;html=1;align=center;verticalAlign=middle;resizable=0;points=[];" vertex="1" connectable="0" parent="h-Z2IbVYWgnOHZGRxgHi-191">
          <mxGeometry x="-0.7708" relative="1" as="geometry">
            <mxPoint x="10" y="29" as="offset" />
          </mxGeometry>
        </mxCell>
        <mxCell id="h-Z2IbVYWgnOHZGRxgHi-195" value="" style="endArrow=none;dashed=1;html=1;dashPattern=1 3;strokeWidth=2;rounded=0;" edge="1" parent="WIyWlLk6GJQsqaUBKTNV-1" source="h-Z2IbVYWgnOHZGRxgHi-89" target="h-Z2IbVYWgnOHZGRxgHi-181">
          <mxGeometry width="50" height="50" relative="1" as="geometry">
            <mxPoint x="270" y="931" as="sourcePoint" />
            <mxPoint x="320" y="881" as="targetPoint" />
          </mxGeometry>
        </mxCell>
        <mxCell id="h-Z2IbVYWgnOHZGRxgHi-201" value="" style="endArrow=none;dashed=1;html=1;dashPattern=1 3;strokeWidth=2;rounded=0;entryX=0;entryY=0;entryDx=0;entryDy=0;" edge="1" parent="WIyWlLk6GJQsqaUBKTNV-1" target="h-Z2IbVYWgnOHZGRxgHi-142">
          <mxGeometry width="50" height="50" relative="1" as="geometry">
            <mxPoint x="391" y="566" as="sourcePoint" />
            <mxPoint x="455" y="563" as="targetPoint" />
          </mxGeometry>
        </mxCell>
        <mxCell id="h-Z2IbVYWgnOHZGRxgHi-208" value="" style="endArrow=none;html=1;rounded=0;entryX=0.5;entryY=1;entryDx=0;entryDy=0;exitX=0.5;exitY=0;exitDx=0;exitDy=0;" edge="1" parent="WIyWlLk6GJQsqaUBKTNV-1" source="h-Z2IbVYWgnOHZGRxgHi-54" target="h-Z2IbVYWgnOHZGRxgHi-148">
          <mxGeometry width="50" height="50" relative="1" as="geometry">
            <mxPoint x="253" y="437" as="sourcePoint" />
            <mxPoint x="191" y="317" as="targetPoint" />
          </mxGeometry>
        </mxCell>
        <mxCell id="h-Z2IbVYWgnOHZGRxgHi-212" value="*" style="edgeLabel;html=1;align=center;verticalAlign=middle;resizable=0;points=[];" vertex="1" connectable="0" parent="h-Z2IbVYWgnOHZGRxgHi-208">
          <mxGeometry x="0.8432" y="2" relative="1" as="geometry">
            <mxPoint x="-8" y="3" as="offset" />
          </mxGeometry>
        </mxCell>
        <mxCell id="h-Z2IbVYWgnOHZGRxgHi-214" value="*" style="edgeLabel;html=1;align=center;verticalAlign=middle;resizable=0;points=[];" vertex="1" connectable="0" parent="h-Z2IbVYWgnOHZGRxgHi-208">
          <mxGeometry x="-0.7882" y="1" relative="1" as="geometry">
            <mxPoint x="-11" as="offset" />
          </mxGeometry>
        </mxCell>
        <mxCell id="h-Z2IbVYWgnOHZGRxgHi-216" value="" style="endArrow=none;html=1;rounded=0;entryX=0.5;entryY=0;entryDx=0;entryDy=0;" edge="1" parent="WIyWlLk6GJQsqaUBKTNV-1" source="h-Z2IbVYWgnOHZGRxgHi-5" target="h-Z2IbVYWgnOHZGRxgHi-148">
          <mxGeometry width="50" height="50" relative="1" as="geometry">
            <mxPoint x="344.5" y="451" as="sourcePoint" />
            <mxPoint x="394.5" y="401" as="targetPoint" />
          </mxGeometry>
        </mxCell>
        <mxCell id="h-Z2IbVYWgnOHZGRxgHi-217" value="*" style="edgeLabel;html=1;align=center;verticalAlign=middle;resizable=0;points=[];" vertex="1" connectable="0" parent="h-Z2IbVYWgnOHZGRxgHi-216">
          <mxGeometry x="0.8308" relative="1" as="geometry">
            <mxPoint x="7" y="-4" as="offset" />
          </mxGeometry>
        </mxCell>
        <mxCell id="h-Z2IbVYWgnOHZGRxgHi-218" value="1" style="edgeLabel;html=1;align=center;verticalAlign=middle;resizable=0;points=[];" vertex="1" connectable="0" parent="h-Z2IbVYWgnOHZGRxgHi-216">
          <mxGeometry x="-0.7202" relative="1" as="geometry">
            <mxPoint x="7" as="offset" />
          </mxGeometry>
        </mxCell>
      </root>
    </mxGraphModel>
  </diagram>
</mxfile>
